<?xml version="1.0" encoding="UTF-8"?>
<svg xmlns="http://www.w3.org/2000/svg" xmlns:xlink="http://www.w3.org/1999/xlink" width="28pt" height="28pt" viewBox="0 0 28 28" version="1.1">
<g id="surface1">
<path style=" stroke:none;fill-rule:nonzero;fill:rgb(85.098039%,74.509804%,43.529412%);fill-opacity:1;" d="M 21.050781 10.503906 C 21.050781 16.308594 16.347656 21.011719 10.546875 21.011719 C 4.746094 21.011719 0.0429688 16.308594 0.0429688 10.503906 C 0.0429688 4.703125 4.746094 0 10.546875 0 C 16.347656 0 21.050781 4.703125 21.050781 10.503906 Z M 21.050781 10.503906 "/>
<path style=" stroke:none;fill-rule:nonzero;fill:rgb(100%,87.058824%,83.529412%);fill-opacity:1;" d="M 19.378906 27.546875 L 14.816406 27.546875 L 14.816406 24.277344 L 19.378906 24.277344 C 20.152344 24.277344 20.78125 24.90625 20.78125 25.679688 L 20.78125 26.144531 C 20.78125 26.917969 20.152344 27.546875 19.378906 27.546875 Z M 19.378906 27.546875 "/>
<path style=" stroke:none;fill-rule:nonzero;fill:rgb(29.803922%,14.117647%,11.372549%);fill-opacity:1;" d="M 19.378906 28.015625 L 14.816406 28.015625 C 14.558594 28.015625 14.347656 27.804688 14.347656 27.546875 L 14.347656 24.277344 C 14.347656 24.019531 14.558594 23.8125 14.816406 23.8125 L 19.378906 23.8125 C 20.410156 23.8125 21.246094 24.648438 21.246094 25.679688 L 21.246094 26.144531 C 21.246094 27.175781 20.410156 28.015625 19.378906 28.015625 Z M 15.28125 27.078125 L 19.378906 27.078125 C 19.894531 27.078125 20.3125 26.660156 20.3125 26.144531 L 20.3125 25.679688 C 20.3125 25.164062 19.894531 24.746094 19.378906 24.746094 L 15.28125 24.746094 Z M 15.28125 27.078125 "/>
<path style=" stroke:none;fill-rule:nonzero;fill:rgb(74.901961%,49.411765%,40.784314%);fill-opacity:1;" d="M 20.023438 10.738281 C 19.421875 9.59375 19.4375 8.3125 20.175781 7.457031 C 21.21875 6.253906 22.554688 6.292969 24.820312 7.667969 C 26.0625 8.421875 24.925781 4.433594 20.660156 4.433594 C 17.988281 4.433594 15.824219 6.601562 15.824219 9.277344 C 15.824219 9.609375 15.855469 10.382812 15.921875 10.699219 Z M 20.023438 10.738281 "/>
<path style=" stroke:none;fill-rule:nonzero;fill:rgb(29.803922%,14.117647%,11.372549%);fill-opacity:1;" d="M 20.023438 11.207031 C 20.019531 11.207031 20.019531 11.207031 20.019531 11.207031 L 15.917969 11.167969 C 15.695312 11.164062 15.507812 11.007812 15.464844 10.792969 C 15.386719 10.425781 15.355469 9.609375 15.355469 9.277344 C 15.355469 6.347656 17.734375 3.96875 20.660156 3.96875 C 23.777344 3.96875 25.289062 5.894531 25.652344 6.914062 C 25.902344 7.621094 25.667969 7.953125 25.503906 8.085938 C 25.386719 8.179688 25.070312 8.363281 24.578125 8.066406 C 22.230469 6.644531 21.261719 6.914062 20.53125 7.761719 C 19.9375 8.445312 19.902344 9.503906 20.4375 10.523438 C 20.511719 10.667969 20.507812 10.84375 20.421875 10.980469 C 20.335938 11.121094 20.183594 11.207031 20.023438 11.207031 Z M 16.332031 10.238281 L 19.316406 10.265625 C 18.941406 9.117188 19.117188 7.96875 19.824219 7.152344 C 21.246094 5.503906 23.058594 6.117188 24.699219 7.054688 C 24.613281 6.867188 24.46875 6.636719 24.25 6.382812 C 23.765625 5.832031 22.660156 4.902344 20.660156 4.902344 C 18.25 4.902344 16.289062 6.863281 16.289062 9.277344 C 16.289062 9.519531 16.304688 9.921875 16.332031 10.238281 Z M 25.121094 7.296875 "/>
<path style=" stroke:none;fill-rule:nonzero;fill:rgb(74.901961%,49.411765%,40.784314%);fill-opacity:1;" d="M 9.609375 10.738281 C 10.210938 9.59375 10.195312 8.3125 9.453125 7.457031 C 8.414062 6.253906 7.078125 6.292969 4.8125 7.667969 C 3.566406 8.421875 4.707031 4.433594 8.972656 4.433594 C 11.644531 4.433594 13.808594 6.601562 13.808594 9.277344 C 13.808594 9.609375 13.773438 10.382812 13.710938 10.699219 Z M 9.609375 10.738281 "/>
<path style=" stroke:none;fill-rule:nonzero;fill:rgb(29.803922%,14.117647%,11.372549%);fill-opacity:1;" d="M 9.609375 11.207031 C 9.445312 11.207031 9.296875 11.121094 9.210938 10.980469 C 9.125 10.839844 9.121094 10.667969 9.195312 10.519531 C 9.730469 9.503906 9.695312 8.445312 9.101562 7.761719 C 8.371094 6.917969 7.402344 6.644531 5.054688 8.066406 C 4.566406 8.363281 4.242188 8.179688 4.128906 8.085938 C 3.964844 7.953125 3.730469 7.621094 3.980469 6.914062 C 4.34375 5.894531 5.851562 3.96875 8.972656 3.96875 C 11.898438 3.96875 14.277344 6.347656 14.277344 9.277344 C 14.277344 9.613281 14.242188 10.425781 14.167969 10.792969 C 14.125 11.007812 13.933594 11.164062 13.714844 11.167969 L 9.613281 11.207031 C 9.613281 11.207031 9.609375 11.207031 9.609375 11.207031 Z M 7.691406 6.125 C 8.441406 6.125 9.164062 6.40625 9.808594 7.152344 C 10.515625 7.96875 10.691406 9.117188 10.316406 10.265625 L 13.300781 10.238281 C 13.324219 9.921875 13.34375 9.519531 13.34375 9.277344 C 13.34375 6.863281 11.382812 4.902344 8.972656 4.902344 C 6.972656 4.902344 5.867188 5.832031 5.382812 6.382812 C 5.164062 6.636719 5.019531 6.867188 4.929688 7.054688 C 5.832031 6.539062 6.78125 6.125 7.691406 6.125 Z M 4.511719 7.296875 "/>
<path style=" stroke:none;fill-rule:nonzero;fill:rgb(90.588235%,81.960784%,76.862745%);fill-opacity:1;" d="M 23.753906 15.40625 L 18.386719 15.40625 L 18.386719 10.695312 L 27.488281 10.695312 L 27.488281 11.671875 C 27.488281 13.734375 25.816406 15.40625 23.753906 15.40625 Z M 23.753906 15.40625 "/>
<path style=" stroke:none;fill-rule:nonzero;fill:rgb(29.803922%,14.117647%,11.372549%);fill-opacity:1;" d="M 23.753906 15.875 L 18.386719 15.875 C 18.128906 15.875 17.921875 15.664062 17.921875 15.40625 L 17.921875 10.695312 C 17.921875 10.4375 18.128906 10.226562 18.386719 10.226562 L 27.488281 10.226562 C 27.746094 10.226562 27.957031 10.4375 27.957031 10.695312 L 27.957031 11.671875 C 27.957031 13.988281 26.070312 15.875 23.753906 15.875 Z M 18.855469 14.941406 L 23.753906 14.941406 C 25.558594 14.941406 27.023438 13.472656 27.023438 11.671875 L 27.023438 11.160156 L 18.855469 11.160156 Z M 18.855469 14.941406 "/>
<path style=" stroke:none;fill-rule:nonzero;fill:rgb(90.588235%,81.960784%,76.862745%);fill-opacity:1;" d="M 5.878906 15.40625 L 11.246094 15.40625 L 11.246094 10.695312 L 2.140625 10.695312 L 2.140625 11.671875 C 2.140625 13.734375 3.8125 15.40625 5.878906 15.40625 Z M 5.878906 15.40625 "/>
<path style=" stroke:none;fill-rule:nonzero;fill:rgb(29.803922%,14.117647%,11.372549%);fill-opacity:1;" d="M 11.246094 15.875 L 5.878906 15.875 C 3.558594 15.875 1.675781 13.988281 1.675781 11.671875 L 1.675781 10.695312 C 1.675781 10.4375 1.882812 10.226562 2.140625 10.226562 L 11.246094 10.226562 C 11.503906 10.226562 11.710938 10.4375 11.710938 10.695312 L 11.710938 15.40625 C 11.710938 15.664062 11.503906 15.875 11.246094 15.875 Z M 2.609375 11.160156 L 2.609375 11.671875 C 2.609375 13.472656 4.074219 14.941406 5.878906 14.941406 L 10.777344 14.941406 L 10.777344 11.160156 Z M 2.609375 11.160156 "/>
<path style=" stroke:none;fill-rule:nonzero;fill:rgb(92.941176%,92.156863%,86.27451%);fill-opacity:1;" d="M 18.566406 9.804688 L 11.394531 9.804688 C 9.507812 9.804688 7.976562 11.367188 7.976562 13.296875 L 7.976562 17.574219 C 7.976562 18.699219 8.40625 19.71875 9.101562 20.476562 C 9.851562 21.289062 10.425781 22.25 10.910156 23.25 L 12.066406 25.625 C 12.507812 26.535156 13.304688 27.246094 14.273438 27.46875 C 15.746094 27.800781 17.199219 27.058594 17.84375 25.734375 L 19.054688 23.25 C 19.539062 22.25 20.113281 21.289062 20.859375 20.476562 C 21.558594 19.71875 21.984375 18.699219 21.984375 17.574219 L 21.984375 13.296875 C 21.984375 11.367188 20.453125 9.804688 18.566406 9.804688 Z M 18.566406 9.804688 "/>
<path style=" stroke:none;fill-rule:nonzero;fill:rgb(29.803922%,14.117647%,11.372549%);fill-opacity:1;" d="M 14.980469 28.011719 C 14.710938 28.011719 14.441406 27.984375 14.171875 27.921875 C 13.097656 27.679688 12.175781 26.914062 11.648438 25.828125 L 10.488281 23.453125 C 9.941406 22.324219 9.390625 21.480469 8.761719 20.792969 C 7.953125 19.917969 7.511719 18.773438 7.511719 17.574219 L 7.511719 13.296875 C 7.511719 11.113281 9.253906 9.339844 11.394531 9.339844 L 18.566406 9.339844 C 20.710938 9.339844 22.453125 11.113281 22.453125 13.296875 L 22.453125 17.574219 C 22.453125 18.773438 22.007812 19.917969 21.203125 20.792969 C 20.570312 21.480469 20.023438 22.324219 19.472656 23.453125 L 18.261719 25.941406 C 17.632812 27.230469 16.351562 28.011719 14.980469 28.011719 Z M 11.394531 10.273438 C 9.769531 10.273438 8.445312 11.628906 8.445312 13.296875 L 8.445312 17.574219 C 8.445312 18.539062 8.800781 19.457031 9.445312 20.160156 C 10.140625 20.917969 10.742188 21.832031 11.328125 23.042969 L 12.488281 25.421875 C 12.886719 26.238281 13.589844 26.832031 14.378906 27.011719 C 15.609375 27.289062 16.863281 26.683594 17.421875 25.53125 L 18.632812 23.042969 C 19.222656 21.832031 19.820312 20.917969 20.515625 20.160156 C 21.164062 19.457031 21.519531 18.539062 21.519531 17.574219 L 21.519531 13.296875 C 21.519531 11.628906 20.195312 10.269531 18.566406 10.269531 L 11.394531 10.269531 Z M 11.394531 10.273438 "/>
<path style=" stroke:none;fill-rule:nonzero;fill:rgb(29.803922%,14.117647%,11.372549%);fill-opacity:1;" d="M 20.652344 18.625 C 20.394531 18.625 20.183594 18.414062 20.183594 18.15625 C 20.183594 17.871094 19.953125 17.636719 19.664062 17.636719 C 19.378906 17.636719 19.144531 17.871094 19.144531 18.15625 C 19.144531 18.414062 18.9375 18.625 18.679688 18.625 C 18.421875 18.625 18.210938 18.414062 18.210938 18.15625 C 18.210938 17.355469 18.863281 16.703125 19.664062 16.703125 C 20.464844 16.703125 21.117188 17.355469 21.117188 18.15625 C 21.117188 18.414062 20.910156 18.625 20.652344 18.625 Z M 20.652344 18.625 "/>
<path style=" stroke:none;fill-rule:nonzero;fill:rgb(29.803922%,14.117647%,11.372549%);fill-opacity:1;" d="M 11.207031 18.625 C 10.949219 18.625 10.742188 18.414062 10.742188 18.15625 C 10.742188 17.871094 10.507812 17.636719 10.222656 17.636719 C 9.9375 17.636719 9.703125 17.871094 9.703125 18.15625 C 9.703125 18.414062 9.492188 18.625 9.234375 18.625 C 8.976562 18.625 8.769531 18.414062 8.769531 18.15625 C 8.769531 17.355469 9.421875 16.703125 10.222656 16.703125 C 11.023438 16.703125 11.675781 17.355469 11.675781 18.15625 C 11.675781 18.414062 11.464844 18.625 11.207031 18.625 Z M 11.207031 18.625 "/>
<path style=" stroke:none;fill-rule:nonzero;fill:rgb(29.803922%,14.117647%,11.372549%);fill-opacity:1;" d="M 14.992188 25.308594 C 14.988281 25.308594 14.984375 25.308594 14.984375 25.308594 C 14.84375 25.308594 14.710938 25.242188 14.625 25.128906 L 13.71875 23.96875 C 13.558594 23.765625 13.59375 23.472656 13.796875 23.316406 C 14 23.15625 14.292969 23.191406 14.453125 23.394531 L 15.007812 24.105469 L 15.59375 23.417969 C 15.757812 23.222656 16.054688 23.199219 16.25 23.367188 C 16.445312 23.53125 16.46875 23.828125 16.304688 24.023438 L 15.347656 25.144531 C 15.257812 25.25 15.128906 25.308594 14.992188 25.308594 Z M 14.992188 25.308594 "/>
<path style=" stroke:none;fill-rule:nonzero;fill:rgb(29.803922%,14.117647%,11.372549%);fill-opacity:1;" d="M 14.980469 28.015625 C 14.722656 28.015625 14.515625 27.804688 14.515625 27.546875 L 14.515625 24.746094 C 14.515625 24.488281 14.722656 24.277344 14.980469 24.277344 C 15.238281 24.277344 15.449219 24.488281 15.449219 24.746094 L 15.449219 27.546875 C 15.449219 27.804688 15.238281 28.015625 14.980469 28.015625 Z M 14.980469 28.015625 "/>
<path style=" stroke:none;fill-rule:nonzero;fill:rgb(29.803922%,14.117647%,11.372549%);fill-opacity:1;" d="M 18.160156 25.457031 C 17.980469 25.457031 17.804688 25.351562 17.730469 25.171875 C 16.640625 22.578125 16.273438 19.796875 16.636719 16.898438 C 16.828125 15.367188 18.160156 14.210938 19.734375 14.210938 L 19.804688 14.210938 C 20.0625 14.210938 20.273438 14.417969 20.273438 14.675781 C 20.273438 14.933594 20.0625 15.144531 19.804688 15.144531 L 19.734375 15.144531 C 18.628906 15.144531 17.695312 15.949219 17.5625 17.015625 C 17.21875 19.746094 17.566406 22.371094 18.589844 24.808594 C 18.691406 25.046875 18.578125 25.320312 18.34375 25.421875 C 18.28125 25.445312 18.222656 25.457031 18.160156 25.457031 Z M 18.160156 25.457031 "/>
<path style=" stroke:none;fill-rule:nonzero;fill:rgb(29.803922%,14.117647%,11.372549%);fill-opacity:1;" d="M 11.777344 25.457031 C 11.71875 25.457031 11.65625 25.445312 11.597656 25.421875 C 11.359375 25.320312 11.25 25.046875 11.347656 24.808594 C 12.375 22.371094 12.71875 19.746094 12.375 17.015625 C 12.242188 15.949219 11.308594 15.144531 10.207031 15.144531 L 10.132812 15.144531 C 9.875 15.144531 9.667969 14.933594 9.667969 14.675781 C 9.667969 14.417969 9.875 14.210938 10.132812 14.210938 L 10.207031 14.210938 C 11.78125 14.210938 13.113281 15.367188 13.304688 16.898438 C 13.667969 19.796875 13.296875 22.578125 12.207031 25.171875 C 12.132812 25.351562 11.960938 25.457031 11.777344 25.457031 Z M 11.777344 25.457031 "/>
<path style=" stroke:none;fill-rule:nonzero;fill:rgb(29.803922%,14.117647%,11.372549%);fill-opacity:1;" d="M 19.652344 8.402344 C 19.628906 8.402344 19.605469 8.402344 19.582031 8.398438 L 16.152344 7.902344 C 15.898438 7.863281 15.71875 7.625 15.757812 7.371094 C 15.792969 7.117188 16.027344 6.941406 16.285156 6.976562 L 19.71875 7.476562 C 19.972656 7.511719 20.148438 7.75 20.113281 8.003906 C 20.078125 8.238281 19.878906 8.402344 19.652344 8.402344 Z M 19.652344 8.402344 "/>
<path style=" stroke:none;fill-rule:nonzero;fill:rgb(29.803922%,14.117647%,11.372549%);fill-opacity:1;" d="M 20.46875 7.4375 C 20.324219 7.4375 20.179688 7.367188 20.085938 7.238281 L 18.800781 5.402344 C 18.652344 5.191406 18.703125 4.902344 18.914062 4.753906 C 19.128906 4.605469 19.417969 4.65625 19.566406 4.867188 L 20.851562 6.703125 C 21 6.914062 20.949219 7.207031 20.738281 7.351562 C 20.65625 7.410156 20.5625 7.4375 20.46875 7.4375 Z M 20.46875 7.4375 "/>
<path style=" stroke:none;fill-rule:nonzero;fill:rgb(29.803922%,14.117647%,11.372549%);fill-opacity:1;" d="M 22.453125 7.003906 C 22.441406 7.003906 22.425781 7.003906 22.414062 7 C 22.15625 6.980469 21.964844 6.757812 21.988281 6.5 L 22.128906 4.722656 C 22.152344 4.464844 22.367188 4.273438 22.632812 4.296875 C 22.890625 4.316406 23.082031 4.542969 23.0625 4.796875 L 22.917969 6.574219 C 22.898438 6.816406 22.691406 7.003906 22.453125 7.003906 Z M 22.453125 7.003906 "/>
<path style=" stroke:none;fill-rule:nonzero;fill:rgb(29.803922%,14.117647%,11.372549%);fill-opacity:1;" d="M 9.84375 8.402344 C 9.617188 8.402344 9.417969 8.238281 9.382812 8.003906 C 9.347656 7.75 9.523438 7.511719 9.777344 7.476562 L 13.210938 6.976562 C 13.464844 6.941406 13.703125 7.117188 13.738281 7.371094 C 13.777344 7.625 13.601562 7.863281 13.34375 7.902344 L 9.914062 8.398438 C 9.890625 8.402344 9.867188 8.402344 9.84375 8.402344 Z M 9.84375 8.402344 "/>
<path style=" stroke:none;fill-rule:nonzero;fill:rgb(29.803922%,14.117647%,11.372549%);fill-opacity:1;" d="M 9.027344 7.4375 C 8.933594 7.4375 8.839844 7.410156 8.757812 7.351562 C 8.546875 7.207031 8.496094 6.914062 8.644531 6.703125 L 9.929688 4.867188 C 10.078125 4.65625 10.371094 4.605469 10.582031 4.753906 C 10.792969 4.902344 10.84375 5.191406 10.695312 5.402344 L 9.410156 7.238281 C 9.316406 7.367188 9.171875 7.4375 9.027344 7.4375 Z M 9.027344 7.4375 "/>
<path style=" stroke:none;fill-rule:nonzero;fill:rgb(29.803922%,14.117647%,11.372549%);fill-opacity:1;" d="M 7.042969 7.003906 C 6.804688 7.003906 6.597656 6.816406 6.578125 6.574219 L 6.433594 4.796875 C 6.414062 4.542969 6.605469 4.316406 6.863281 4.296875 C 7.128906 4.273438 7.34375 4.464844 7.367188 4.722656 L 7.511719 6.5 C 7.53125 6.753906 7.339844 6.980469 7.082031 7 C 7.070312 7.003906 7.058594 7.003906 7.042969 7.003906 Z M 7.042969 7.003906 "/>
</g>
</svg>
